<?xml version="1.0" encoding="utf-8" ?>
<svg xmlns="http://www.w3.org/2000/svg" xmlns:xlink="http://www.w3.org/1999/xlink" width="24" height="24" viewBox="0 0 24 24">
	<defs>
		<clipPath id="clipPath9305587404">
			<path transform="matrix(1 0 0 1 0 0)" d="M0 0L24 0L24 24L0 24L0 0Z" fill-rule="nonzero"/>
		</clipPath>
	</defs>
	<g clip-path="url(#clipPath9305587404)">
		<defs>
			<clipPath id="clipPath6435268700">
				<path transform="matrix(1 0 0 1 -0 -0)" d="M0 0L24 0L24 24L0 24L0 0Z" fill-rule="nonzero"/>
			</clipPath>
		</defs>
		<g clip-path="url(#clipPath6435268700)">
			<path transform="matrix(1 0 0 1 1.49999 2.99999)" d="M10.5 2.61378Q9.63362 1.26356 7.97984 0.473415Q7.66528 0.323129 7.31645 0.191298Q4.87467 -0.731506 0.753371 -0.749986L0.752835 -0.749988Q0.129374 -0.75234 -0.311483 -0.311483Q-0.75234 0.129373 -0.749994 0.750006L-0.749994 14.1595Q-0.749994 14.793 -0.369718 15.2397Q0.0648089 15.75 0.750005 15.75Q4.83219 15.75 7.09381 16.5401Q8.06856 16.8806 8.7846 17.3907Q9.40756 17.8344 9.91413 18.4682Q9.96628 18.5335 10.0315 18.5857Q10.0892 18.6318 10.1548 18.6658Q10.2203 18.6998 10.2913 18.7204Q10.3622 18.7409 10.4358 18.7473Q10.5094 18.7536 10.5829 18.7454Q10.6563 18.7373 10.7267 18.7149Q10.7971 18.6926 10.8618 18.657Q10.9265 18.6213 10.983 18.5738Q11.0395 18.5262 11.0857 18.4685Q11.5955 17.8312 12.2191 17.3868Q12.935 16.8766 13.9091 16.5368Q16.1646 15.75 20.25 15.75Q20.8713 15.75 21.3107 15.3107Q21.75 14.8713 21.75 14.25L21.75 0.752834Q21.7523 0.129369 21.3115 -0.311484Q20.8706 -0.752338 20.2466 -0.749987Q15.5366 -0.728865 13.0202 0.473415Q11.3664 1.26356 10.5 2.61378ZM19.7151 0.756503Q19.9784 0.751256 20.25 0.750013L20.25 14.25Q15.9105 14.25 13.415 15.1205Q12.2389 15.5308 11.3486 16.1652Q11.299 16.2006 11.25 16.2368L11.25 4.59685Q11.497 3.69118 12.0477 3.0331Q12.651 2.31219 13.6668 1.82687Q15.7414 0.83569 19.7151 0.756503ZM9.75001 4.59684Q9.73457 4.54025 9.71795 4.48461Q9.4686 3.65005 8.95229 3.0331Q8.34897 2.31219 7.33319 1.82687Q7.01133 1.6731 6.64377 1.54128Q4.49168 0.769445 0.772559 0.750124Q0.76129 0.750065 0.750006 0.750013L0.750006 14.1595Q0.750006 14.2199 0.762331 14.25Q5.09021 14.2512 7.5885 15.124Q8.76487 15.5349 9.65488 16.1689Q9.70276 16.203 9.75001 16.2379L9.75001 4.59684Z" fill-rule="evenodd" fill="rgb(75, 85, 99)"/>
		</g>
	</g>
</svg>
