<?xml version="1.0" encoding="utf-8" ?>
<svg xmlns="http://www.w3.org/2000/svg" xmlns:xlink="http://www.w3.org/1999/xlink" width="24" height="24" viewBox="0 0 24 24">
	<defs>
		<clipPath id="clipPath8291355286">
			<path transform="matrix(1 0 0 1 0 0)" d="M0 0L24 0L24 24L0 24L0 0Z" fill-rule="nonzero"/>
		</clipPath>
	</defs>
	<g clip-path="url(#clipPath8291355286)">
		<defs>
			<clipPath id="clipPath2667231175">
				<path transform="matrix(1 0 0 1 -0 -0)" d="M0 0L24 0L24 24L0 24L0 0Z" fill-rule="nonzero"/>
			</clipPath>
		</defs>
		<g clip-path="url(#clipPath2667231175)">
			<path transform="matrix(1 0 0 1 3 3)" d="M17.25 9Q17.25 7.32181 16.6018 5.78982Q15.9754 4.3095 14.833 3.16705Q13.6905 2.0246 12.2102 1.39823Q10.6782 0.75 9 0.75Q7.32181 0.75 5.78982 1.39823Q4.3095 2.0246 3.16705 3.16705Q2.0246 4.3095 1.39823 5.78982Q0.75 7.32181 0.75 9Q0.75 10.6782 1.39823 12.2102Q2.0246 13.6905 3.16705 14.833Q4.3095 15.9754 5.78982 16.6018Q7.32181 17.25 9 17.25Q10.6782 17.25 12.2102 16.6018Q13.6905 15.9754 14.833 14.833Q15.9754 13.6905 16.6018 12.2102Q17.25 10.6782 17.25 9ZM18.75 9Q18.75 10.9825 17.9832 12.7947Q17.2429 14.5444 15.8936 15.8936Q14.5444 17.2429 12.7947 17.9832Q10.9825 18.75 9 18.75Q7.01753 18.75 5.2053 17.9832Q3.45564 17.2429 2.10639 15.8936Q0.757141 14.5444 0.0168071 12.7947Q-0.75 10.9825 -0.75 9Q-0.75 7.01753 0.0168071 5.2053Q0.757139 3.45564 2.10639 2.10639Q3.45564 0.75714 5.2053 0.0168071Q7.01753 -0.75 9 -0.75Q10.9825 -0.75 12.7947 0.0168071Q14.5444 0.75714 15.8936 2.10639Q17.2429 3.45564 17.9832 5.2053Q18.75 7.01753 18.75 9Z" fill-rule="nonzero" fill="rgb(75, 85, 99)"/>
			<path transform="matrix(1 0 0 1 7.0477 7.0477)" d="M9.38996 0.0271418L3.8962 2.22464C3.51496 2.3771 3.17918 2.5985 2.88884 2.88884C2.5985 3.17917 2.3771 3.51496 2.22464 3.8962L0.0271418 9.38995C-0.000737429 9.4596 -0.00713921 9.53117 0.00793648 9.60467C0.0230122 9.67816 0.0570741 9.74143 0.110122 9.79447C0.163171 9.84752 0.226441 9.88159 0.299932 9.89666C0.373423 9.91174 0.444993 9.90533 0.514642 9.87745L6.00839 7.67995C6.38963 7.52749 6.72542 7.30609 7.01576 7.01576C7.30609 6.72542 7.52749 6.38963 7.67995 6.00839L9.87745 0.514641C9.90533 0.444992 9.91173 0.373421 9.89666 0.29993C9.88158 0.22644 9.84752 0.16317 9.79447 0.110122C9.74143 0.0570741 9.67816 0.0230122 9.60466 0.00793648C9.53117 -0.00713921 9.4596 -0.000736954 9.38996 0.0271418ZM4.9523 6.0773C4.64164 6.0773 4.37647 5.96746 4.1568 5.74779C3.93713 5.52812 3.8273 5.26296 3.8273 4.9523C3.8273 4.64164 3.93713 4.37647 4.1568 4.1568C4.37647 3.93713 4.64164 3.8273 4.9523 3.8273C5.26296 3.8273 5.52812 3.93713 5.74779 4.1568C5.96746 4.37647 6.0773 4.64164 6.0773 4.9523C6.0773 5.26296 5.96746 5.52812 5.74779 5.74779C5.52812 5.96746 5.26296 6.0773 4.9523 6.0773Z" fill-rule="nonzero" fill="rgb(75, 85, 99)"/>
		</g>
	</g>
</svg>
