<?xml version="1.0" encoding="utf-8" ?>
<svg xmlns="http://www.w3.org/2000/svg" xmlns:xlink="http://www.w3.org/1999/xlink" width="24" height="24" viewBox="0 0 24 24">
	<defs>
		<clipPath id="clipPath3098248007">
			<path transform="matrix(1 0 0 1 0 0)" d="M0 0L24 0L24 24L0 24L0 0Z" fill-rule="nonzero"/>
		</clipPath>
	</defs>
	<g clip-path="url(#clipPath3098248007)">
		<defs>
			<clipPath id="clipPath0784038483">
				<path transform="matrix(1 0 0 1 -0 -0)" d="M0 0L24 0L24 24L0 24L0 0Z" fill-rule="nonzero"/>
			</clipPath>
		</defs>
		<g clip-path="url(#clipPath0784038483)">
			<path transform="matrix(1 0 0 1 3.75 9.9375)" d="M0 -0.75C-0.41421 -0.75 -0.75 -0.41421 -0.75 0L-0.75 11.0625Q-0.75 11.6838 -0.310663 12.1232Q0.12868 12.5625 0.75 12.5625L5.25 12.5625Q5.32387 12.5625 5.39632 12.5481Q5.46877 12.5337 5.53701 12.5054Q5.60526 12.4771 5.66668 12.4361Q5.7281 12.3951 5.78033 12.3428Q5.83256 12.2906 5.8736 12.2292Q5.91464 12.1678 5.94291 12.0995Q5.97118 12.0313 5.98559 11.9588Q6 11.8864 6 11.8125L6 5.4375Q6 5.28217 6.10983 5.17234Q6.21967 5.0625 6.375 5.0625L10.125 5.0625Q10.2803 5.0625 10.3902 5.17234Q10.5 5.28217 10.5 5.4375L10.5 11.8125Q10.5 11.8864 10.5144 11.9588Q10.5288 12.0313 10.5571 12.0995Q10.5854 12.1678 10.6264 12.2292Q10.6674 12.2906 10.7197 12.3428Q10.7719 12.3951 10.8333 12.4361Q10.8947 12.4771 10.963 12.5054Q11.0312 12.5337 11.1037 12.5481Q11.1761 12.5625 11.25 12.5625L15.75 12.5625Q16.3713 12.5625 16.8107 12.1232Q17.25 11.6838 17.25 11.0625L17.25 0C17.25 -0.41421 16.9142 -0.75 16.5 -0.75C16.0858 -0.75 15.75 -0.41421 15.75 0L15.75 11.0625L12 11.0625L12 5.4375Q12 4.66085 11.4508 4.11167Q10.9016 3.5625 10.125 3.5625L6.375 3.5625Q5.59835 3.5625 5.04918 4.11167Q4.5 4.66085 4.5 5.4375L4.5 11.0625L0.75 11.0625L0.75 0C0.75 -0.41421 0.41421 -0.75 0 -0.75Z" fill-rule="evenodd" fill="rgb(75, 85, 99)"/>
			<path transform="matrix(1 0 0 1 1.5 2.25082)" d="M20.4814 10.291L10.5149 0.750488Q10.5082 0.750015 10.5002 0.75Q10.492 0.749986 10.4852 0.750469L0.518624 10.291C0.219407 10.5774 -0.255358 10.567 -0.541784 10.2678C-0.828209 9.96859 -0.81784 9.49382 -0.518624 9.2074L9.46081 -0.345437Q9.85887 -0.751152 10.5029 -0.749997Q11.1451 -0.748846 11.5399 -0.344777L14.25 2.24949L14.25 0.749181Q14.25 0.675313 14.2644 0.602863Q14.2788 0.530414 14.3071 0.462169Q14.3354 0.393923 14.3764 0.332504Q14.4174 0.271084 14.4697 0.218851Q14.5219 0.166618 14.5833 0.125579Q14.6447 0.0845398 14.713 0.0562716Q14.7812 0.0280033 14.8537 0.0135922Q14.9261 -0.000818789 15 -0.000818789L17.25 -0.000818789Q17.3239 -0.000818789 17.3963 0.0135922Q17.4688 0.0280033 17.537 0.0562716Q17.6053 0.0845398 17.6667 0.125579Q17.7281 0.166618 17.7803 0.218851Q17.8326 0.271084 17.8736 0.332503Q17.9146 0.393923 17.9429 0.462169Q17.9712 0.530414 17.9856 0.602863Q18 0.675313 18 0.749181L18 5.83919L21.5186 9.2074C21.8178 9.49382 21.8282 9.96859 21.5418 10.2678C21.2554 10.567 20.7806 10.5774 20.4814 10.291ZM16.5 1.49918L16.5 4.40331L15.75 3.68537L15.75 1.49918L16.5 1.49918Z" fill-rule="evenodd" fill="rgb(75, 85, 99)"/>
		</g>
	</g>
</svg>
