<?xml version="1.0" encoding="utf-8" ?>
<svg xmlns="http://www.w3.org/2000/svg" xmlns:xlink="http://www.w3.org/1999/xlink" width="24" height="24" viewBox="0 0 24 24">
	<defs>
		<clipPath id="clipPath7023905499">
			<path transform="matrix(1 0 0 1 0 0)" d="M0 0L24 0L24 24L0 24L0 0Z" fill-rule="nonzero"/>
		</clipPath>
	</defs>
	<g clip-path="url(#clipPath7023905499)">
		<defs>
			<clipPath id="clipPath4843580003">
				<path transform="matrix(1 0 0 1 -0 -0)" d="M0 0L24 0L24 24L0 24L0 0Z" fill-rule="nonzero"/>
			</clipPath>
		</defs>
		<g clip-path="url(#clipPath4843580003)">
			<path transform="matrix(1 0 0 1 7.86178 2.25)" d="M9.01117 4.55546Q8.93417 5.59391 8.51889 6.54798Q8.11769 7.46967 7.45704 8.18732Q6.78731 8.91483 5.95522 9.31977Q5.07115 9.75 4.13822 9.75Q3.20533 9.75 2.32095 9.31992Q1.48832 8.91501 0.818327 8.18767Q0.157041 7.46977 -0.243905 6.548Q-0.659162 5.59334 -0.734799 4.55446Q-0.814835 3.45395 -0.481068 2.46861Q-0.154744 1.50524 0.523744 0.773327Q1.19895 0.0449595 2.12544 -0.349487Q3.06618 -0.75 4.13822 -0.75Q5.21044 -0.75 6.15512 -0.341129Q7.07883 0.0586683 7.75454 0.792902Q8.43078 1.52771 8.75721 2.48751Q9.09154 3.4705 9.01117 4.5554L9.01117 4.55546ZM7.51527 4.4446Q7.57307 3.66431 7.3371 2.9705Q7.11262 2.31047 6.65081 1.80866Q6.19076 1.30876 5.55931 1.03546Q4.89976 0.75 4.13822 0.75Q3.37219 0.75 2.71302 1.03064Q2.08124 1.29962 1.62379 1.79308Q1.16316 2.28999 0.93964 2.94985Q0.703224 3.64779 0.761241 4.44554Q0.818315 5.22945 1.1316 5.94969Q1.43167 6.63953 1.92159 7.1714Q2.39941 7.69011 2.97695 7.97098Q3.55072 8.25 4.13822 8.25Q4.72553 8.25 5.29884 7.971Q5.87586 7.69019 6.35346 7.17139Q6.84311 6.6395 7.14353 5.94932Q7.45712 5.22889 7.51527 4.44454L7.51527 4.4446Z" fill-rule="nonzero" fill="rgb(75, 85, 99)"/>
			<path transform="matrix(1 0 0 1 2.99989 14.25)" d="M9.00011 0.75Q7.55567 0.75 6.18921 1.13923Q4.80018 1.53489 3.68247 2.27992Q2.52414 3.05203 1.7869 4.11698Q1.00447 5.2472 0.755082 6.62999Q0.738021 6.72456 0.766918 6.76678Q0.762624 6.76051 0.750272 6.7539L0.750114 6.75L17.2501 6.75L17.2504 6.7538Q17.2381 6.76038 17.2338 6.76665Q17.2627 6.72451 17.2456 6.63003Q16.9961 5.24726 16.2136 4.11702Q15.4762 3.05204 14.3178 2.27993Q13.2001 1.53489 11.811 1.13923Q10.4446 0.75 9.00012 0.75L9.00011 0.75ZM9.00012 -0.75Q10.654 -0.75 12.2219 -0.303388Q13.8367 0.15657 15.1498 1.03179Q16.5464 1.96273 17.4468 3.26316Q18.4145 4.6608 18.7218 6.36372Q18.8481 7.06404 18.4715 7.61413Q18.2686 7.91041 17.9575 8.07668Q17.6333 8.25 17.2501 8.25L0.750114 8.25Q0.367035 8.25 0.0428174 8.07659Q-0.268125 7.91028 -0.470909 7.614Q-0.847413 7.06391 -0.721102 6.36376Q-0.413979 4.66086 0.553593 3.26319Q1.45386 1.96275 2.8505 1.03179Q4.16351 0.156574 5.77829 -0.303388Q7.3462 -0.75 9.00011 -0.75L9.00012 -0.75Z" fill-rule="nonzero" fill="rgb(75, 85, 99)"/>
		</g>
	</g>
</svg>
