<?xml version="1.0" encoding="utf-8" ?>
<svg xmlns="http://www.w3.org/2000/svg" xmlns:xlink="http://www.w3.org/1999/xlink" width="18.375" height="18.375" viewBox="0 0 18.375 18.375">
	<defs>
		<clipPath id="clipPath1675481468">
			<path transform="matrix(1 0 0 1 0 0)" d="M0 0L18.375 0L18.375 18.375L0 18.375L0 0Z" fill-rule="nonzero"/>
		</clipPath>
	</defs>
	<g clip-path="url(#clipPath1675481468)">
		<defs>
			<clipPath id="clipPath8573340016">
				<path transform="matrix(1 0 0 1 -0 -0)" d="M0 0L18.375 0L18.375 18.375L0 18.375L0 0Z" fill-rule="nonzero"/>
			</clipPath>
		</defs>
		<g clip-path="url(#clipPath8573340016)">
			<path transform="matrix(1 0 0 1 1.72266 2.32917)" d="M14.6673 12.3117L11.2906 9.20928C11.6971 8.71211 12.0073 8.16855 12.2212 7.57862C12.4351 6.98868 12.5417 6.3828 12.5409 5.76099C12.5409 2.5844 9.72798 0 6.27047 0C2.81295 0 0 2.5844 0 5.76099C0 8.93758 2.81295 11.522 6.27047 11.522C6.94727 11.5227 7.60673 11.4247 8.24884 11.2282C8.89094 11.0317 9.48257 10.7467 10.0237 10.3732L13.4005 13.4756C13.5779 13.6214 13.7856 13.6912 14.0235 13.685C14.2614 13.6789 14.4645 13.5986 14.6328 13.4439C14.8011 13.2893 14.8886 13.1027 14.8953 12.8841C14.9019 12.6655 14.826 12.4747 14.6673 12.3117ZM1.79156 5.76099C1.79156 4.62467 2.22884 3.65475 3.1034 2.85125C3.97796 2.04775 5.03365 1.646 6.27047 1.646C7.50728 1.646 8.56297 2.04775 9.43753 2.85125C10.3121 3.65475 10.7494 4.62467 10.7494 5.76099C10.7494 6.89732 10.3121 7.86723 9.43753 8.67073C8.56297 9.47424 7.50728 9.87599 6.27047 9.87599C5.03427 9.87463 3.9791 9.47239 3.10498 8.66929C2.23085 7.86619 1.79305 6.89675 1.79156 5.76099Z" fill-rule="nonzero" fill="rgb(107, 114, 128)"/>
		</g>
	</g>
</svg>
